<?xml version="1.0" encoding="UTF-8"?>
<svg version="1.1" xmlns="http://www.w3.org/2000/svg" width="500" height="500">
<path d="M0 0 C4.61532603 4.89504276 6.31786692 8.43555056 6.5625 15.125 C6.30656424 22.18529673 4.20142814 26.49856176 -0.125 31.9375 C-6.16661789 36.77079432 -12.6512896 38.42892481 -20.125 40.0625 C-39.62146347 44.38388108 -56.48896183 54.60395996 -67.6875 71.5 C-79.83329755 91.74299591 -82.65967364 111.37922426 -77.1953125 134.30078125 C-73.91575793 146.18553876 -68.3542194 157.13952665 -59.9375 166.1875 C-59.9375 166.8475 -59.9375 167.5075 -59.9375 168.1875 C-59.2775 168.1875 -58.6175 168.1875 -57.9375 168.1875 C-57.9375 168.8475 -57.9375 169.5075 -57.9375 170.1875 C-57.2775 170.1875 -56.6175 170.1875 -55.9375 170.1875 C-55.9375 170.8475 -55.9375 171.5075 -55.9375 172.1875 C-55.2775 172.1875 -54.6175 172.1875 -53.9375 172.1875 C-53.9375 172.8475 -53.9375 173.5075 -53.9375 174.1875 C-53.1640625 174.5278125 -53.1640625 174.5278125 -52.375 174.875 C-49.04202995 176.66967618 -45.79046329 178.68715015 -42.9375 181.1875 C-42.9375 181.8475 -42.9375 182.5075 -42.9375 183.1875 C-41.7 183.55875 -41.7 183.55875 -40.4375 183.9375 C-37.84354444 184.8639127 -35.76104976 185.77575554 -33.375 187.0625 C-18.37568101 194.49233026 -0.07066204 196.46014627 16 191.0625 C29.93972309 185.03999828 39.17410858 176.22908803 44.9140625 162.08984375 C46.61571332 156.56515076 46.58169592 150.74711059 45.0625 145.1875 C41.94928279 139.98740092 37.83051272 136.18864727 32.0625 134.1875 C24.54174085 132.95797255 16.98096229 132.89032566 9.375 132.6875 C-0.09151507 132.4312635 -9.50191719 132.01085277 -18.9375 131.1875 C-19.10431109 134.10402174 -19.10431109 134.10402174 -18.9375 137.1875 C-16.5630253 139.5619747 -15.86157719 139.48986658 -12.61328125 139.71484375 C-11.31680664 139.82022461 -11.31680664 139.82022461 -9.99414062 139.92773438 C-8.18442203 140.05782802 -6.37452656 140.18548726 -4.56445312 140.31054688 C1.63793896 140.82014386 6.93523681 141.68568945 11.9375 145.6875 C14.59639766 149.23269688 14.35001042 152.94672123 14.0625 157.1875 C12.33168726 161.83336577 10.35881838 164.66574791 6.0625 167.1875 C-7.41235944 170.01287375 -25.05438517 168.13238472 -37.22265625 161.41796875 C-42.75942744 157.44511471 -46.03373554 152.34912607 -47.4699707 145.7355957 C-48.1189107 140.81076806 -48.10013056 135.94288541 -48.10546875 130.98046875 C-48.11046135 129.3605175 -48.11046135 129.3605175 -48.11555481 127.70783997 C-48.12060679 125.42754541 -48.12296367 123.1472435 -48.12280273 120.86694336 C-48.12498584 117.39749829 -48.14315097 113.92837312 -48.16210938 110.45898438 C-48.16504441 108.23698025 -48.16702847 106.01497462 -48.16796875 103.79296875 C-48.17515427 102.76455368 -48.18233978 101.73613861 -48.18974304 100.67655945 C-48.15950091 91.03377363 -47.02884779 82.90670797 -40.9375 75.1875 C-31.40232398 66.35001978 -18.24244714 66.97741945 -5.9375 66.75 C-4.94645264 66.71567871 -3.95540527 66.68135742 -2.93432617 66.64599609 C1.64938362 66.61871907 5.00018031 66.60375147 8.66015625 69.56640625 C12.16404872 73.38935235 13.12321765 75.4874058 12.9375 80.6875 C11.93332671 84.70419318 11.14039588 86.41739371 8.0625 89.1875 C0.17097706 93.88843113 -10.12419682 92.44419815 -18.9375 92.1875 C-19.0303125 94.105625 -19.0303125 94.105625 -19.125 96.0625 C-19.15980469 96.78179687 -19.19460937 97.50109375 -19.23046875 98.2421875 C-19.13378906 98.88414062 -19.03710938 99.52609375 -18.9375 100.1875 C-15.08578605 102.7553093 -12.43878205 102.16354728 -8.0625 101.625 C-7.26513428 101.53492676 -6.46776855 101.44485352 -5.64624023 101.35205078 C-0.47375632 100.70091276 4.4397227 99.62671837 9.46362305 98.25195312 C18.74526687 95.72896129 27.4941519 94.67924339 37.125 94.625 C38.78293579 94.60348877 38.78293579 94.60348877 40.47436523 94.58154297 C54.41503683 94.75128283 66.45822216 99.9288202 76.75 109.3125 C90.61583944 124.17827979 93.77536062 141.25979429 93.19433594 160.72412109 C92.24950926 178.37838249 83.44250511 198.44337709 71.0625 211.1875 C70.4025 211.1875 69.7425 211.1875 69.0625 211.1875 C69.0625 211.8475 69.0625 212.5075 69.0625 213.1875 C68.4025 213.1875 67.7425 213.1875 67.0625 213.1875 C67.0625 213.8475 67.0625 214.5075 67.0625 215.1875 C43.49239381 235.30336649 16.62449081 241.76184261 -13.9375 240.1875 C-47.10639859 237.40036371 -75.90607199 219.35900344 -97.609375 194.96484375 C-98.9375 193.1875 -98.9375 193.1875 -98.9375 191.1875 C-99.5975 191.1875 -100.2575 191.1875 -100.9375 191.1875 C-102.63937796 188.75968825 -104.21163624 186.34154074 -105.75 183.8125 C-106.20068848 183.07950684 -106.65137695 182.34651367 -107.11572266 181.59130859 C-119.63879931 161.0186539 -126.31297347 139.56055673 -126.30810547 115.48339844 C-126.31245525 113.08715396 -126.34882112 110.69279277 -126.38671875 108.296875 C-126.56942398 83.24243506 -117.31997145 55.52418761 -100.9375 36.1875 C-100.2775 36.1875 -99.6175 36.1875 -98.9375 36.1875 C-98.66808594 35.60355469 -98.39867187 35.01960938 -98.12109375 34.41796875 C-88.55844645 16.39727038 -63.47284552 3.41340827 -44.62158203 -2.54443359 C-29.48646454 -6.84356356 -13.96794861 -8.61852148 0 0 Z " fill="#4962AA" transform="translate(266.9375,131.8125)"/>
<path d="M0 0 C4.61532603 4.89504276 6.31786692 8.43555056 6.5625 15.125 C6.39149752 20.78945728 5.0119257 24.39468324 2.0625 29.1875 C1.7325 29.1875 1.4025 29.1875 1.0625 29.1875 C-1.98822115 20.03533654 -1.98822115 20.03533654 -1.12890625 14.12890625 C-0.91325403 11.94157654 -1.16557691 10.24596158 -1.9375 8.1875 C-1.2775 8.1875 -0.6175 8.1875 0.0625 8.1875 C0.0625 7.5275 0.0625 6.8675 0.0625 6.1875 C-0.5975 6.1875 -1.2575 6.1875 -1.9375 6.1875 C-2.9275 4.2075 -2.9275 4.2075 -3.9375 2.1875 C-4.5975 2.8475 -5.2575 3.5075 -5.9375 4.1875 C-8.5625 3.8125 -8.5625 3.8125 -10.9375 3.1875 C-10.6075 1.5375 -10.2775 -0.1125 -9.9375 -1.8125 C-12.93849588 -1.92140711 -15.93546378 -2.00023555 -18.9375 -2.0625 C-19.77667969 -2.09601563 -20.61585938 -2.12953125 -21.48046875 -2.1640625 C-26.87557663 -2.24770758 -30.55840616 -1.48964774 -35.24609375 1.22363281 C-36.9375 2.1875 -36.9375 2.1875 -39.9375 3.1875 C-39.9375 2.5275 -39.9375 1.8675 -39.9375 1.1875 C-50.41117781 3.17556955 -50.41117781 3.17556955 -58.3125 9.375 C-58.51875 9.973125 -58.725 10.57125 -58.9375 11.1875 C-59.824375 11.105 -60.71125 11.0225 -61.625 10.9375 C-66.85006293 11.33184437 -69.0789668 14.30900091 -72.625 17.9375 C-74.9375 20.1875 -74.9375 20.1875 -76.9375 20.1875 C-79.66324084 21.58531582 -81.58764483 22.72102645 -83.4375 25.1875 C-84.9375 27.1875 -84.9375 27.1875 -87.2734375 28.50390625 C-90.25442907 30.38778802 -91.92322329 32.33555096 -94.0625 35.125 C-94.72507813 35.97964844 -95.38765625 36.83429688 -96.0703125 37.71484375 C-96.68648437 38.53082031 -97.30265625 39.34679687 -97.9375 40.1875 C-98.49824219 40.90550781 -99.05898437 41.62351563 -99.63671875 42.36328125 C-101.02550776 44.3109223 -101.52000831 45.84954653 -101.9375 48.1875 C-101.2775 48.5175 -100.6175 48.8475 -99.9375 49.1875 C-99.9375 49.8475 -99.9375 50.5075 -99.9375 51.1875 C-100.865625 51.249375 -101.79375 51.31125 -102.75 51.375 C-106.07264442 51.89146155 -106.07264442 51.89146155 -107.875 54.5 C-109.00596818 57.36068422 -109.07619156 58.3925298 -107.9375 61.1875 C-108.5975 61.1875 -109.2575 61.1875 -109.9375 61.1875 C-110.22625 61.785625 -110.515 62.38375 -110.8125 63 C-111.9375 65.1875 -111.9375 65.1875 -113.9375 68.1875 C-114.1025 69.38375 -114.2675 70.58 -114.4375 71.8125 C-114.6025 72.92625 -114.7675 74.04 -114.9375 75.1875 C-115.9275 75.6825 -115.9275 75.6825 -116.9375 76.1875 C-116.6075 77.8375 -116.2775 79.4875 -115.9375 81.1875 C-116.5975 81.1875 -117.2575 81.1875 -117.9375 81.1875 C-119.4225 86.1375 -119.4225 86.1375 -120.9375 91.1875 C-121.9275 90.8575 -122.9175 90.5275 -123.9375 90.1875 C-123.02391897 72.82946046 -114.18319132 56.60760194 -105.0625 42.1875 C-104.68125977 41.58156006 -104.30001953 40.97562012 -103.90722656 40.35131836 C-102.97486474 38.92408435 -101.96309316 37.54928344 -100.9375 36.1875 C-100.2775 36.1875 -99.6175 36.1875 -98.9375 36.1875 C-98.66808594 35.60355469 -98.39867187 35.01960938 -98.12109375 34.41796875 C-88.55844645 16.39727038 -63.47284552 3.41340827 -44.62158203 -2.54443359 C-29.48646454 -6.84356356 -13.96794861 -8.61852148 0 0 Z " fill="#83C8D1" transform="translate(266.9375,131.8125)"/>
<path d="M0 0 C0.33 0 0.66 0 1 0 C1.98918963 2.81919044 2.75611464 5.05780859 3 8 C1.1875 11.5 1.1875 11.5 0.02734375 13.19140625 C-1.74535245 16.31216039 -1.75167705 19.46139798 -2 23 C-3.485 22.505 -3.485 22.505 -5 22 C-7.72426311 24.35277269 -8.8141763 26.62496331 -10 30 C-10.99 30 -11.98 30 -13 30 C-13.33 30.66 -13.66 31.32 -14 32 C-14.99 32 -15.98 32 -17 32 C-17.20625 32.61875 -17.4125 33.2375 -17.625 33.875 C-19.59179734 36.91459589 -21.54335751 37.13583938 -25 38 C-26.010625 38.165 -27.02125 38.33 -28.0625 38.5 C-30.9567123 38.86821837 -30.9567123 38.86821837 -33.28344727 40.01464844 C-36.47253899 41.17139996 -39.01374155 41.25873009 -42.40234375 41.265625 C-43.62244141 41.26820313 -44.84253906 41.27078125 -46.09960938 41.2734375 C-47.99936523 41.26183594 -47.99936523 41.26183594 -49.9375 41.25 C-51.83145508 41.26160156 -51.83145508 41.26160156 -53.76367188 41.2734375 C-54.98505859 41.27085937 -56.20644531 41.26828125 -57.46484375 41.265625 C-58.574646 41.26336914 -59.68444824 41.26111328 -60.82788086 41.25878906 C-64.16244204 40.98674759 -66.85804448 40.10736188 -70 39 C-71.34061543 39.30271961 -72.67405895 39.63837971 -74 40 C-76.34114367 39.72686657 -78.67750658 39.40197001 -81 39 C-80.01 38.505 -80.01 38.505 -79 38 C-79.33 36.68 -79.66 35.36 -80 34 C-83.63 33.34 -87.26 32.68 -91 32 C-91 30.02 -91 28.04 -91 26 C-90.34 25.67 -89.68 25.34 -89 25 C-89 25.66 -89 26.32 -89 27 C-88.175 27.2475 -87.35 27.495 -86.5 27.75 C-83.90604444 28.6764127 -81.82354976 29.58825554 -79.4375 30.875 C-64.43818101 38.30483026 -46.13316204 40.27264627 -30.0625 34.875 C-16.9451876 29.20781163 -7.86484877 21.1162752 -2 8 C-1.1182507 5.31678204 -0.52498677 2.78242987 0 0 Z " fill="#9683CB" transform="translate(313,288)"/>
<path d="M0 0 C0.99 0 1.98 0 3 0 C2.27161313 4.91661139 -1.06309159 7.90247872 -4.1875 11.5625 C-5.8816879 13.84089063 -6.59023918 15.23411445 -7 18 C-6.34 18.33 -5.68 18.66 -5 19 C-5 19.66 -5 20.32 -5 21 C-5.928125 21.061875 -6.85625 21.12375 -7.8125 21.1875 C-11.13514442 21.70396155 -11.13514442 21.70396155 -12.9375 24.3125 C-14.06846818 27.17318422 -14.13869156 28.2050298 -13 31 C-13.66 31 -14.32 31 -15 31 C-15.433125 31.8971875 -15.433125 31.8971875 -15.875 32.8125 C-17 35 -17 35 -19 38 C-19.165 39.19625 -19.33 40.3925 -19.5 41.625 C-19.665 42.73875 -19.83 43.8525 -20 45 C-20.99 45.495 -20.99 45.495 -22 46 C-21.67 47.65 -21.34 49.3 -21 51 C-21.66 51 -22.32 51 -23 51 C-23.99 54.3 -24.98 57.6 -26 61 C-26.99 60.67 -27.98 60.34 -29 60 C-28.08641897 42.64196046 -19.24569132 26.42010194 -10.125 12 C-9.74375977 11.39406006 -9.36251953 10.78812012 -8.96972656 10.16381836 C-8.03736474 8.73658435 -7.02559316 7.36178344 -6 6 C-5.34 6 -4.68 6 -4 6 C-3.566875 5.071875 -3.566875 5.071875 -3.125 4.125 C-2 2 -2 2 0 0 Z " fill="#6FA2BE" transform="translate(172,162)"/>
<path d="M0 0 C0.99451172 -0.04125 1.98902344 -0.0825 3.01367188 -0.125 C10.44137644 -0.20303235 15.1083701 1.56270357 20.6875 6.5 C24.98710538 11.31382024 25.28485849 16.21249989 25.09375 22.54296875 C24.49865089 26.87460365 22.96819418 29.79387196 20.6875 33.5 C20.3575 33.5 20.0275 33.5 19.6875 33.5 C16.63677885 24.34783654 16.63677885 24.34783654 17.49609375 18.44140625 C17.71174597 16.25407654 17.45942309 14.55846158 16.6875 12.5 C17.3475 12.5 18.0075 12.5 18.6875 12.5 C18.6875 11.84 18.6875 11.18 18.6875 10.5 C18.0275 10.5 17.3675 10.5 16.6875 10.5 C16.0275 9.18 15.3675 7.86 14.6875 6.5 C14.0275 7.16 13.3675 7.82 12.6875 8.5 C10.0625 8.125 10.0625 8.125 7.6875 7.5 C8.0175 5.85 8.3475 4.2 8.6875 2.5 C5.68650412 2.39109289 2.68953622 2.31226445 -0.3125 2.25 C-1.15167969 2.21648437 -1.99085938 2.18296875 -2.85546875 2.1484375 C-8.25057663 2.06479242 -11.93340616 2.82285226 -16.62109375 5.53613281 C-18.3125 6.5 -18.3125 6.5 -21.3125 7.5 C-21.3125 6.84 -21.3125 6.18 -21.3125 5.5 C-22.385 5.850625 -23.4575 6.20125 -24.5625 6.5625 C-29.23557692 7.73076923 -29.23557692 7.73076923 -32.3125 6.5 C-28.28056084 4.61842839 -24.25794117 3.8342146 -19.91015625 3.0625 C-17.2674357 2.56384778 -17.2674357 2.56384778 -14.703125 1.46875 C-9.80218978 0.06848279 -5.07409046 0.05200861 0 0 Z " fill="#3DA2C5" transform="translate(248.3125,127.5)"/>
<path d="M0 0 C0.99104736 -0.03432129 1.98209473 -0.06864258 3.00317383 -0.10400391 C7.70704456 -0.131996 10.96955854 -0.11856613 14.6875 2.96484375 C15.450625 3.78082031 16.21375 4.59679687 17 5.4375 C15.68 5.7675 14.36 6.0975 13 6.4375 C13 5.7775 13 5.1175 13 4.4375 C12.34 4.4375 11.68 4.4375 11 4.4375 C11 3.7775 11 3.1175 11 2.4375 C8.69 2.7675 6.38 3.0975 4 3.4375 C4 4.0975 4 4.7575 4 5.4375 C2.35 5.4375 0.7 5.4375 -1 5.4375 C-1 4.7775 -1 4.1175 -1 3.4375 C-1.495 3.6025 -1.99 3.7675 -2.5 3.9375 C-6.03444089 4.64438818 -9.39690701 4.49755155 -13 4.4375 C-13.33 5.0975 -13.66 5.7575 -14 6.4375 C-14.99 6.4375 -15.98 6.4375 -17 6.4375 C-17.639375 6.788125 -18.27875 7.13875 -18.9375 7.5 C-21 8.4375 -21 8.4375 -22.9375 7.875 C-25.14957102 7.1930245 -25.14957102 7.1930245 -27.625 8.625 C-30.02701786 10.45811889 -30.94365836 11.6525993 -32 14.4375 C-32.66 14.4375 -33.32 14.4375 -34 14.4375 C-35.60852372 17.11837287 -36.07056307 18.95790267 -36.5 22.125 C-36.665 23.218125 -36.83 24.31125 -37 25.4375 C-37.66 25.7675 -38.32 26.0975 -39 26.4375 C-39 24.4575 -39 22.4775 -39 20.4375 C-39.66 20.4375 -40.32 20.4375 -41 20.4375 C-38.81149161 12.77772063 -35.15264537 7.42356464 -28.20703125 3.3984375 C-19.74557296 -0.28566646 -9.08184969 0.16785031 0 0 Z " fill="#5395B5" transform="translate(261,198.5625)"/>
<path d="M0 0 C0.90105469 0.00902344 1.80210937 0.01804688 2.73046875 0.02734375 C3.41753906 0.03894531 4.10460937 0.05054688 4.8125 0.0625 C1.85503232 1.69491288 -0.80816088 2.51682765 -4.125 3.125 C-4.95902344 3.28097656 -5.79304688 3.43695313 -6.65234375 3.59765625 C-7.48894531 3.75105469 -8.32554687 3.90445313 -9.1875 4.0625 C-10.85469815 4.39316482 -12.52152464 4.72572859 -14.1875 5.0625 C-14.1875 6.3825 -14.1875 7.7025 -14.1875 9.0625 C-15.00734375 9.16046875 -15.8271875 9.2584375 -16.671875 9.359375 C-17.74953125 9.50890625 -18.8271875 9.6584375 -19.9375 9.8125 C-21.00484375 9.95171875 -22.0721875 10.0909375 -23.171875 10.234375 C-26.58724598 11.1722748 -27.94257663 12.38166918 -30.1875 15.0625 C-31.1775 14.7325 -32.1675 14.4025 -33.1875 14.0625 C-33.93 14.805 -34.6725 15.5475 -35.4375 16.3125 C-44.1875 25.0625 -44.1875 25.0625 -46.125 26 C-48.25780584 27.09871816 -49.58374713 28.29837184 -51.1875 30.0625 C-50.8575 30.7225 -50.5275 31.3825 -50.1875 32.0625 C-52.1875 34.0625 -52.1875 34.0625 -53.7734375 35.32421875 C-61.38243206 41.38815546 -65.37846232 49.50044367 -67.1875 59.0625 C-68.29877052 61.65546455 -69.1719971 63.0469971 -71.1875 65.0625 C-71.8475 65.0625 -72.5075 65.0625 -73.1875 65.0625 C-68.91994632 48.14202402 -59.51530418 35.19898037 -47.4375 23 C-46.90697021 22.46383057 -46.37644043 21.92766113 -45.82983398 21.37524414 C-35.15341159 10.89545321 -15.38890133 -0.19985586 0 0 Z " fill="#2373A3" transform="translate(242.1875,148.9375)"/>
<path d="M0 0 C5.52380952 1.44099379 5.52380952 1.44099379 7.4375 3.6875 C8.52632622 8.16378556 7.67794108 11.75710802 5.5 15.75 C-2.55472252 22.99925027 -13.88236671 21.29468835 -24 21 C-24.33 23.64 -24.66 26.28 -25 29 C-25.33 29 -25.66 29 -26 29 C-26.33 27.35 -26.66 25.7 -27 24 C-27.33 26.31 -27.66 28.62 -28 31 C-28.33 30.01 -28.66 29.02 -29 28 C-29.66 28 -30.32 28 -31 28 C-31.33 25.69 -31.66 23.38 -32 21 C-30.68 21 -29.36 21 -28 21 C-27.67 20.01 -27.34 19.02 -27 18 C-25.865625 17.87625 -24.73125 17.7525 -23.5625 17.625 C-22.386875 17.41875 -21.21125 17.2125 -20 17 C-19.67 16.34 -19.34 15.68 -19 15 C-19 15.66 -19 16.32 -19 17 C-17.35 16.34 -15.7 15.68 -14 15 C-14 15.33 -14 15.66 -14 16 C-12.58376784 16.05447047 -11.16691809 16.09300508 -9.75 16.125 C-8.56664062 16.15980469 -8.56664062 16.15980469 -7.359375 16.1953125 C-4.72310698 15.97707839 -3.22385434 15.41518003 -1 14 C1.37227618 11.15031532 1.37227618 11.15031532 3 8 C2.505 6.515 2.505 6.515 2 5 C1.01 4.67 0.02 4.34 -1 4 C-0.67 2.68 -0.34 1.36 0 0 Z " fill="#3F70A7" transform="translate(272,203)"/>
<path d="M0 0 C0.33 0 0.66 0 1 0 C1.1959375 0.76441406 1.391875 1.52882813 1.59375 2.31640625 C5.01167264 14.55905158 10.28041255 25.62644349 19 35 C19 35.66 19 36.32 19 37 C19.66 37 20.32 37 21 37 C21 37.66 21 38.32 21 39 C21.66 39 22.32 39 23 39 C23 39.66 23 40.32 23 41 C23.66 41 24.32 41 25 41 C25 41.66 25 42.32 25 43 C25.556875 43.226875 26.11375 43.45375 26.6875 43.6875 C29.63246684 45.35896766 31.68156544 47.55276352 34 50 C31.125 50.625 31.125 50.625 28 51 C27.34 50.34 26.68 49.68 26 49 C23.93125966 48.3574765 23.93125966 48.3574765 22 48 C21.938125 47.21625 21.87625 46.4325 21.8125 45.625 C21.26680778 42.77635773 21.26680778 42.77635773 18.5625 41.6875 C16.12023958 40.91362381 16.12023958 40.91362381 14 41 C14 40.34 14 39.68 14 39 C13.34 39 12.68 39 12 39 C12.495 36.03 12.495 36.03 13 33 C12.01 33 11.02 33 10 33 C9.34 31.68 8.68 30.36 8 29 C7.34 29.33 6.68 29.66 6 30 C6 27.36 6 24.72 6 22 C5.34 22 4.68 22 4 22 C3.896875 21.34 3.79375 20.68 3.6875 20 C2.95295304 16.79470419 1.85708845 13.90690652 0.62109375 10.8671875 C0 9 0 9 0 6 C-0.66 6 -1.32 6 -2 6 C-1.33333333 4 -0.66666667 2 0 0 Z " fill="#7A6EBA" transform="translate(188,263)"/>
<path d="M0 0 C0.99 0.33 1.98 0.66 3 1 C3.3721042 2.32303717 3.70630173 3.65737935 4 5 C4.66 5.33 5.32 5.66 6 6 C6.33 5.34 6.66 4.68 7 4 C7.33 4.99 7.66 5.98 8 7 C10.08326131 7.02709444 12.16662441 7.04643873 14.25 7.0625 C15.99023438 7.07990234 15.99023438 7.07990234 17.765625 7.09765625 C20.43486636 7.01706321 22.45877305 6.67956406 25 6 C26.66821323 6.32550502 28.33499557 6.65846063 30 7 C30.99 6.67 31.98 6.34 33 6 C35.67622658 5.95752021 38.32647745 5.95381631 41 6 C42.32 6 43.64 6 45 6 C45 6.66 45 7.32 45 8 C45.928125 8.144375 46.85625 8.28875 47.8125 8.4375 C51 9 51 9 54 10 C54 10.66 54 11.32 54 12 C55.32 11.67 56.64 11.34 58 11 C58 11.66 58 12.32 58 13 C53.98618391 13.17451374 50.57196092 12.96311978 46.6640625 12.0234375 C39.89827498 10.62263535 33.13731298 10.61755454 26.25 10.5 C16.30976721 10.32826834 6.80587807 9.62989083 -3 8 C-2.74438677 5.6568787 -2.40729228 3.32156597 -2 1 C-1.34 0.67 -0.68 0.34 0 0 Z " fill="#525392" transform="translate(250,254)"/>
<path d="M0 0 C2.24609375 1.953125 2.24609375 1.953125 4.4921875 3.90625 C5.95936421 5.19572458 5.95936421 5.19572458 8 5 C8.33 7.31 8.66 9.62 9 12 C13.10223585 13.01540112 13.10223585 13.01540112 17 12 C16.38722388 14.96175123 15.74627478 16.38058783 14 19 C14.66 19 15.32 19 16 19 C16.66 19.66 17.32 20.32 18 21 C19.34262065 20.70630173 20.67696283 20.3721042 22 20 C22.66 20.33 23.32 20.66 24 21 C23.87625 21.7425 23.7525 22.485 23.625 23.25 C23.74875 24.1575 23.8725 25.065 24 26 C26.79787307 28.19867777 26.79787307 28.19867777 30 30 C31.875 31.75 31.875 31.75 33 33 C31 34 31 34 27.9375 33.1875 C25 32 25 32 24 30 C23.3915625 29.86078125 22.783125 29.7215625 22.15625 29.578125 C16.76578723 28.132856 12.11473458 21.36062841 9 17 C9 16.34 9 15.68 9 15 C8.34 15 7.68 15 7 15 C5.2734375 12.734375 5.2734375 12.734375 3.375 9.75 C2.74335938 8.77546875 2.11171875 7.8009375 1.4609375 6.796875 C0 4 0 4 0 0 Z " fill="#4B4A83" transform="translate(159,308)"/>
<path d="M0 0 C0.33 0.66 0.66 1.32 1 2 C2.99508067 2.68124706 4.99638693 3.34427209 7 4 C8.19588022 4.60881175 9.3828991 5.23521646 10.5625 5.875 C23.12094094 12.15422047 35.19654127 12.77291147 49 13 C49 13.33 49 13.66 49 14 C44.75038214 14.19694005 40.50029973 14.38092074 36.25 14.5625 C35.0434375 14.61857422 33.836875 14.67464844 32.59375 14.73242188 C30.85351562 14.80493164 30.85351562 14.80493164 29.078125 14.87890625 C28.00981445 14.9260376 26.94150391 14.97316895 25.84082031 15.02172852 C23 15 23 15 20.80761719 14.44506836 C18.78258315 13.77587973 18.78258315 13.77587973 16 15 C13.6593935 14.72230092 11.32375692 14.39460023 9 14 C9.66 13.67 10.32 13.34 11 13 C10.67 11.68 10.34 10.36 10 9 C6.37 8.34 2.74 7.68 -1 7 C-1.04254356 5.00045254 -1.04080783 2.99958364 -1 1 C-0.67 0.67 -0.34 0.34 0 0 Z " fill="#8E7BCE" transform="translate(223,313)"/>
<path d="M0 0 C4.67171717 4.54545455 4.67171717 4.54545455 6.625 7.25 C7.97372834 9.29712875 7.97372834 9.29712875 11 10 C11 10.66 11 11.32 11 12 C14.92098688 12.81964132 18.85225152 13.46246235 22.8125 14.0625 C23.97394531 14.23910156 25.13539063 14.41570312 26.33203125 14.59765625 C27.21246094 14.73042969 28.09289062 14.86320312 29 15 C28.34 15.66 27.68 16.32 27 17 C34.59 17.33 42.18 17.66 50 18 C46.31293255 19.84353372 45.46762462 20.25316899 41.69140625 20.08203125 C40.86801758 20.0461792 40.04462891 20.01032715 39.19628906 19.97338867 C38.32713867 19.92029541 37.45798828 19.86720215 36.5625 19.8125 C35.22203613 19.7357605 35.22203613 19.7357605 33.85449219 19.6574707 C22.22988375 18.88144955 9.81938865 17.38453349 1.4375 8.5625 C-0.6102701 6.00140747 -1.01906181 5.4479526 -0.875 2.0625 C-0.58625 1.381875 -0.2975 0.70125 0 0 Z " fill="#655EAD" transform="translate(223,280)"/>
<path d="M0 0 C0.66 0 1.32 0 2 0 C2.32644414 4.16216275 2.40650982 6.36313462 0.125 9.9375 C-2 12 -2 12 -4 12 C-4 12.66 -4 13.32 -4 14 C-4.66 14 -5.32 14 -6 14 C-6 14.66 -6 15.32 -6 16 C-8.22978333 18.09964356 -10.77637733 19.8235077 -13.25 21.625 C-13.93191406 22.140625 -14.61382812 22.65625 -15.31640625 23.1875 C-16.31220703 23.91839844 -16.31220703 23.91839844 -17.328125 24.6640625 C-17.9355957 25.11217285 -18.54306641 25.5602832 -19.16894531 26.02197266 C-21 27 -21 27 -25 27 C-23.549046 23.17475764 -21.61818068 21.80909034 -18 20 C-17.34 20 -16.68 20 -16 20 C-15.731875 19.360625 -15.46375 18.72125 -15.1875 18.0625 C-14 16 -14 16 -11 15 C-10.26676204 12.98491642 -10.26676204 12.98491642 -10 11 C-9.21625 10.938125 -8.4325 10.87625 -7.625 10.8125 C-6.325625 10.4103125 -6.325625 10.4103125 -5 10 C-3.62533375 7.52363988 -3.62533375 7.52363988 -3 5 C-2.34 5 -1.68 5 -1 5 C-0.67 3.35 -0.34 1.7 0 0 Z " fill="#424475" transform="translate(340,331)"/>
<path d="M0 0 C0 0.99 0 1.98 0 3 C-1.010625 3 -2.02125 3 -3.0625 3 C-6.88253116 3.48815814 -8.33857852 5.14719941 -10.75 8.0625 C-11.30171875 8.79597656 -11.8534375 9.52945313 -12.421875 10.28515625 C-12.94265625 10.85105469 -13.4634375 11.41695312 -14 12 C-14.99 12 -15.98 12 -17 12 C-19.76069017 13.38034508 -21.63823818 14.51765091 -23.5 17 C-25.3371284 19.44950453 -27.35322632 20.50694818 -30 22 C-30.66 22.66 -31.32 23.32 -32 24 C-32 23.34 -32 22.68 -32 22 C-32.66 22 -33.32 22 -34 22 C-31.48087818 15.95686078 -25.5761843 10.56201153 -19.62109375 7.9609375 C-18.14196497 7.53391945 -16.65606681 7.1295912 -15.1640625 6.75 C-11.8668986 5.6073006 -9.51927347 3.4880799 -6.921875 1.20703125 C-4.4879083 -0.32161857 -2.82091798 -0.21886433 0 0 Z " fill="#4ABDD1" transform="translate(207,140)"/>
<path d="M0 0 C0.36070798 6.01179968 -0.59482048 9.83726151 -4.25415039 14.64916992 C-6.72953101 16.56446582 -8.51772225 16.37247532 -11.62109375 16.36328125 C-12.72130859 16.36263672 -13.82152344 16.36199219 -14.95507812 16.36132812 C-16.10427734 16.34521484 -17.25347656 16.32910156 -18.4375 16.3125 C-19.58283203 16.31572266 -20.72816406 16.31894531 -21.90820312 16.32226562 C-30.4656287 16.26718565 -30.4656287 16.26718565 -35 14 C-26.42 14 -17.84 14 -9 14 C-8.34 10.7 -7.68 7.4 -7 4 C-6.34 4 -5.68 4 -5 4 C-4.67 3.01 -4.34 2.02 -4 1 C-2 0 -2 0 0 0 Z " fill="#463BA6" transform="translate(281,282)"/>
<path d="M0 0 C0.33 0.66 0.66 1.32 1 2 C-1 4 -1 4 -2.9375 4.9375 C-5.07030584 6.03621816 -6.39624713 7.23587184 -8 9 C-7.67 9.66 -7.34 10.32 -7 11 C-9 13 -9 13 -10.5859375 14.26171875 C-18.19493206 20.32565546 -22.19096232 28.43794367 -24 38 C-25.11127052 40.59296455 -25.9844971 41.9844971 -28 44 C-28.66 44 -29.32 44 -30 44 C-25.83624858 27.49109085 -16.25157647 11.89506056 -3 1 C-2.01 0.67 -1.02 0.34 0 0 Z " fill="#24659D" transform="translate(199,170)"/>
<path d="M0 0 C-1.98 0.99 -1.98 0.99 -4 2 C-4 2.66 -4 3.32 -4 4 C-8.39958672 6.49309914 -11.8399468 5.7856534 -16.62890625 5.15234375 C-19.5169035 4.96678874 -21.3979448 5.81724763 -24 7 C-24.99 6.34 -25.98 5.68 -27 5 C-27 5.66 -27 6.32 -27 7 C-28.98 7 -30.96 7 -33 7 C-33 6.34 -33 5.68 -33 5 C-33.99 5.66 -34.98 6.32 -36 7 C-36.99 7.495 -36.99 7.495 -38 8 C-38.66 7.34 -39.32 6.68 -40 6 C-40.825 5.835 -41.65 5.67 -42.5 5.5 C-45 5 -45 5 -47 3 C-45.92069214 3.01571045 -45.92069214 3.01571045 -44.81958008 3.03173828 C-24.52996429 3.78918802 -24.52996429 3.78918802 -4.796875 -0.1328125 C-2 -1 -2 -1 0 0 Z " fill="#36347F" transform="translate(293,344)"/>
<path d="M0 0 C0.99 0 1.98 0 3 0 C2.88648483 1.81325551 2.75887039 3.62563357 2.625 5.4375 C2.55539063 6.44683594 2.48578125 7.45617187 2.4140625 8.49609375 C2.27742187 9.32238281 2.14078125 10.14867187 2 11 C1.01 11.495 1.01 11.495 0 12 C0.33 13.65 0.66 15.3 1 17 C0.34 17 -0.32 17 -1 17 C-1.99 20.3 -2.98 23.6 -4 27 C-4.99 26.67 -5.98 26.34 -7 26 C-6.53302282 17.12743366 -3.98726896 7.97453792 0 0 Z " fill="#6688B0" transform="translate(150,196)"/>
<path d="M0 0 C0.66 0.33 1.32 0.66 2 1 C0.96582363 4.31080073 -0.00115995 5.00061912 -3.125 6.66796875 C-4.40931288 7.19284587 -5.70158418 7.69855016 -7 8.1875 C-8.0067981 8.57711914 -8.0067981 8.57711914 -9.03393555 8.97460938 C-14.15358054 10.87127336 -19.47601119 12.55821361 -25 12 C-25.66 11.34 -26.32 10.68 -27 10 C-26.01 10 -25.02 10 -24 10 C-23.67 9.34 -23.34 8.68 -23 8 C-19.41448862 6.52902097 -15.85913738 5.7847815 -12.0625 5.125 C-8.61588995 4.48558366 -5.99713954 3.6333092 -3 1.8125 C-2.01 1.214375 -1.02 0.61625 0 0 Z " fill="#3C3D6D" transform="translate(312,357)"/>
<path d="M0 0 C0.99 0.33 1.98 0.66 3 1 C3.3721042 2.32303717 3.70630173 3.65737935 4 5 C4.66 5.33 5.32 5.66 6 6 C6.33 5.34 6.66 4.68 7 4 C7.33 4.99 7.66 5.98 8 7 C10.08326131 7.02709444 12.16662441 7.04643873 14.25 7.0625 C15.99023438 7.07990234 15.99023438 7.07990234 17.765625 7.09765625 C20.85395637 7.12294898 20.85395637 7.12294898 23.1875 6.4375 C26.30629845 5.68468658 29.03044759 7.02918479 32 8 C32 8.33 32 8.66 32 9 C27.85418181 9.02931979 23.70839075 9.04690557 19.5625 9.0625 C18.39783203 9.07087891 17.23316406 9.07925781 16.03320312 9.08789062 C9.59673798 9.10602151 3.37934125 8.86649876 -3 8 C-2.74438677 5.6568787 -2.40729228 3.32156597 -2 1 C-1.34 0.67 -0.68 0.34 0 0 Z " fill="#323776" transform="translate(250,254)"/>
<path d="M0 0 C7.10526316 2.05263158 7.10526316 2.05263158 9 5 C9.4375 7.9375 9.4375 7.9375 9 11 C6.88093452 13.63056405 4.81981355 15.1201243 2 17 C-0.91796875 17.1953125 -0.91796875 17.1953125 -4.1875 17.125 C-5.27417969 17.10695312 -6.36085937 17.08890625 -7.48046875 17.0703125 C-8.72763672 17.03550781 -8.72763672 17.03550781 -10 17 C-6.91190305 15.23537317 -5.76687864 15 -2 15 C-2 14.34 -2 13.68 -2 13 C-0.8553125 12.1028125 -0.8553125 12.1028125 0.3125 11.1875 C3.02803527 8.9771806 4.38106242 7.06746068 6 4 C4.35 3.67 2.7 3.34 1 3 C0.67 2.01 0.34 1.02 0 0 Z " fill="#305E9C" transform="translate(259,151)"/>
<path d="M0 0 C1.05316406 -0.00773437 2.10632813 -0.01546875 3.19140625 -0.0234375 C4.19558594 -0.02085938 5.19976562 -0.01828125 6.234375 -0.015625 C7.14928711 -0.01336914 8.06419922 -0.01111328 9.00683594 -0.00878906 C11.25 0.25 11.25 0.25 13.25 2.25 C12.92 2.58 12.59 2.91 12.25 3.25 C12.91 3.91 13.57 4.57 14.25 5.25 C13.59 6.24 12.93 7.23 12.25 8.25 C9.775 7.755 9.775 7.755 7.25 7.25 C7.58 5.6 7.91 3.95 8.25 2.25 C5.24900412 2.14109289 2.25203622 2.06226445 -0.75 2 C-1.58917969 1.96648437 -2.42835938 1.93296875 -3.29296875 1.8984375 C-8.68807663 1.81479242 -12.37090616 2.57285226 -17.05859375 5.28613281 C-18.75 6.25 -18.75 6.25 -21.75 7.25 C-21.75 6.59 -21.75 5.93 -21.75 5.25 C-22.8225 5.600625 -23.895 5.95125 -25 6.3125 C-29.67307692 7.48076923 -29.67307692 7.48076923 -32.75 6.25 C-28.71806084 4.36842839 -24.69544117 3.5842146 -20.34765625 2.8125 C-17.70667238 2.31816669 -17.70667238 2.31816669 -15.16796875 1.203125 C-10.12075359 -0.204327 -5.21326744 -0.03885665 0 0 Z " fill="#59B5C5" transform="translate(248.75,127.75)"/>
<path d="M0 0 C0 0.66 0 1.32 0 2 C2.64 2 5.28 2 8 2 C8.495 3.485 8.495 3.485 9 5 C8.45287354 4.9685791 7.90574707 4.9371582 7.34204102 4.90478516 C-4.6249507 4.31249591 -14.41728567 4.96516649 -25.53125 9.58984375 C-28.41922799 10.76389787 -30.93549238 11.53443057 -34 12 C-33.34 11.01 -32.68 10.02 -32 9 C-31.34 9.33 -30.68 9.66 -30 10 C-30 9.34 -30 8.68 -30 8 C-28.35 8 -26.7 8 -25 8 C-25 7.34 -25 6.68 -25 6 C-23.54494642 5.47007308 -22.08581873 4.9513211 -20.625 4.4375 C-19.40683594 4.00244141 -19.40683594 4.00244141 -18.1640625 3.55859375 C-16 3 -16 3 -14 4 C-13.67 3.01 -13.34 2.02 -13 1 C-12.67 1.66 -12.34 2.32 -12 3 C-11.30132812 2.7834375 -10.60265625 2.566875 -9.8828125 2.34375 C-8.97273438 2.0653125 -8.06265625 1.786875 -7.125 1.5 C-6.22007812 1.2215625 -5.31515625 0.943125 -4.3828125 0.65625 C-2 0 -2 0 0 0 Z " fill="#4FB7D4" transform="translate(249,145)"/>
<path d="M0 0 C1.77226453 0.28284018 3.542788 0.57660498 5.3125 0.875 C6.29863281 1.03742188 7.28476563 1.19984375 8.30078125 1.3671875 C11 2 11 2 14 4 C14.99 4 15.98 4 17 4 C17.33 4.66 17.66 5.32 18 6 C19.65 5.67 21.3 5.34 23 5 C22.67 5.66 22.34 6.32 22 7 C23.17369141 7.18175781 23.17369141 7.18175781 24.37109375 7.3671875 C25.38300781 7.53476562 26.39492187 7.70234375 27.4375 7.875 C28.95150391 8.11863281 28.95150391 8.11863281 30.49609375 8.3671875 C31.32238281 8.57601563 32.14867187 8.78484375 33 9 C33.495 9.99 33.495 9.99 34 11 C25.88339776 10.97463562 18.94702137 10.02350893 11.375 7.1875 C10.70082031 6.93919434 10.02664062 6.69088867 9.33203125 6.43505859 C5.42745483 4.88604608 2.73202753 3.19661089 0 0 Z " fill="#323568" transform="translate(212,358)"/>
<path d="M0 0 C0.66 0.66 1.32 1.32 2 2 C1.73009445 6.17315511 0.23932046 8.30691078 -2.5625 11.3125 C-3.20316406 12.00988281 -3.84382813 12.70726562 -4.50390625 13.42578125 C-4.99761719 13.94527344 -5.49132812 14.46476562 -6 15 C-5.67 15.66 -5.34 16.32 -5 17 C-5.33 17.66 -5.66 18.32 -6 19 C-6.598125 19.103125 -7.19625 19.20625 -7.8125 19.3125 C-10.97715786 20.30710676 -12.07954286 22.37537524 -14 25 C-14.66 25.66 -15.32 26.32 -16 27 C-16.69748583 28.31747324 -17.36959957 29.64914193 -18 31 C-18.99 31 -19.98 31 -21 31 C-20.65975871 27.95353186 -20.33788887 26.36388032 -18.22265625 24.0859375 C-17.50980469 23.52132813 -16.79695313 22.95671875 -16.0625 22.375 C-13.44850856 20.27811394 -11.88922484 18.83383726 -10 16 C-9.34 16 -8.68 16 -8 16 C-7.7525 15.319375 -7.505 14.63875 -7.25 13.9375 C-5.75674406 10.42834854 -3.91877126 7.2978881 -2 4 C-1.3197633 2.67353844 -0.64507739 1.34391123 0 0 Z " fill="#393985" transform="translate(333,305)"/>
<path d="M0 0 C0 0.33 0 0.66 0 1 C-4.62 1.33 -9.24 1.66 -14 2 C-14 2.33 -14 2.66 -14 3 C-19.724927 3.73870026 -25.16350692 4.0655905 -30.93359375 3.83984375 C-33.22573636 3.79216818 -33.22573636 3.79216818 -35 6 C-35 5.34 -35 4.68 -35 4 C-39.455 4.495 -39.455 4.495 -44 5 C-44 4.67 -44 4.34 -44 4 C-29.40133977 -0.61227065 -15.20038432 -0.43684093 0 0 Z " fill="#778DB9" transform="translate(317,227)"/>
<path d="M0 0 C0.33 2.31 0.66 4.62 1 7 C2.0725 7.103125 3.145 7.20625 4.25 7.3125 C7.84739269 7.97202199 9.45776191 8.45776191 12 11 C12 11.66 12 12.32 12 13 C6.41476324 12.55628006 3.11813163 11.16227295 -1.4375 7.9375 C-2.48808594 7.20402344 -3.53867188 6.47054688 -4.62109375 5.71484375 C-5.40613281 5.14894531 -6.19117188 4.58304687 -7 4 C-6.67 3.01 -6.34 2.02 -6 1 C-3.90006779 0.25486277 -2.22568901 0 0 0 Z " fill="#43437D" transform="translate(199,344)"/>
<path d="M0 0 C0.33 0.66 0.66 1.32 1 2 C2.65 1.34 4.3 0.68 6 0 C6 0.33 6 0.66 6 1 C9.63 1 13.26 1 17 1 C17.33 1.66 17.66 2.32 18 3 C17.41508789 3.01981934 16.83017578 3.03963867 16.22753906 3.06005859 C13.56791975 3.15553481 10.90906162 3.26512142 8.25 3.375 C7.32960938 3.4059375 6.40921875 3.436875 5.4609375 3.46875 C4.57148438 3.50742188 3.68203125 3.54609375 2.765625 3.5859375 C1.94868164 3.6173584 1.13173828 3.6487793 0.29003906 3.68115234 C-2.21433705 4.02984266 -3.87377466 4.63855282 -6 6 C-6.91599427 8.40404738 -6.91599427 8.40404738 -7.25 11.125 C-7.39953125 12.03507813 -7.5490625 12.94515625 -7.703125 13.8828125 C-7.80109375 14.58148438 -7.8990625 15.28015625 -8 16 C-8.33 15.01 -8.66 14.02 -9 13 C-9.66 13 -10.32 13 -11 13 C-11.33 10.69 -11.66 8.38 -12 6 C-10.68 6 -9.36 6 -8 6 C-7.67 5.01 -7.34 4.02 -7 3 C-3.535 2.505 -3.535 2.505 0 2 C0 1.34 0 0.68 0 0 Z " fill="#447FB6" transform="translate(252,218)"/>
<path d="M0 0 C3.6451999 3.48671295 4.190988 5.57265904 4.3125 10.625 C4.29118247 16.52284872 3.06719133 20.01581409 0 25 C-0.33 25 -0.66 25 -1 25 C-1.66 22.69 -2.32 20.38 -3 18 C-2.01 17.34 -1.02 16.68 0 16 C0.22107787 13.2114711 0.28107535 10.65346819 0.1875 7.875 C0.17396484 7.12089844 0.16042969 6.36679688 0.14648438 5.58984375 C0.11109985 3.72625873 0.05729167 1.86304022 0 0 Z " fill="#689BB9" transform="translate(269,136)"/>
<path d="M0 0 C0 0.66 0 1.32 0 2 C-4.01535068 3.90079664 -7.18996591 4.23570807 -11.61328125 4.1953125 C-12.86044922 4.18886719 -14.10761719 4.18242187 -15.39257812 4.17578125 C-16.68615234 4.15902344 -17.97972656 4.14226562 -19.3125 4.125 C-20.62541016 4.11597656 -21.93832031 4.10695313 -23.29101562 4.09765625 C-26.52752913 4.07411797 -29.76367149 4.0412352 -33 4 C-33.33 3.34 -33.66 2.68 -34 2 C-33.30962646 1.97494385 -32.61925293 1.9498877 -31.90795898 1.92407227 C-28.75098591 1.8073434 -25.59425543 1.68496822 -22.4375 1.5625 C-21.35146484 1.52318359 -20.26542969 1.48386719 -19.14648438 1.44335938 C-12.76721928 1.19129115 -6.34068687 0 0 0 Z " fill="#8E73C5" transform="translate(282,325)"/>
<path d="M0 0 C0.79454266 2.30673677 1.13895046 3.57888634 0.36328125 5.9296875 C-1.8944297 10.10939031 -4.14592514 14.19456685 -7 18 C-7.66 18 -8.32 18 -9 18 C-9.226875 18.5775 -9.45375 19.155 -9.6875 19.75 C-11.33038023 22.5663661 -13.39533227 24.08077114 -16 26 C-15.875 23.8125 -15.875 23.8125 -15 21 C-13.49311796 19.78166984 -11.98337795 18.56561103 -10.43359375 17.40234375 C-7.96484911 14.98741371 -7.6517896 12.32412697 -7 9 C-5.68 8.67 -4.36 8.34 -3 8 C-2.87625 7.4225 -2.7525 6.845 -2.625 6.25 C-1.99351176 3.97664233 -1.11141809 2.0746471 0 0 Z " fill="#927FD9" transform="translate(332,303)"/>
<path d="M0 0 C0.81082031 -0.00322266 1.62164062 -0.00644531 2.45703125 -0.00976562 C8.47364631 0.04493088 8.47364631 0.04493088 11.875 2.3125 C4.182359 3.16050767 -3.38791674 3.43402487 -11.125 3.3125 C-11.455 5.9525 -11.785 8.5925 -12.125 11.3125 C-12.455 11.3125 -12.785 11.3125 -13.125 11.3125 C-13.455 8.6725 -13.785 6.0325 -14.125 3.3125 C-9.51733038 -0.22253398 -5.55508814 -0.11145843 0 0 Z " fill="#5C7CAF" transform="translate(259.125,220.6875)"/>
<path d="M0 0 C-0.33 0.66 -0.66 1.32 -1 2 C-3.21484375 2.4140625 -3.21484375 2.4140625 -5.9375 2.625 C-6.83339844 2.69976562 -7.72929687 2.77453125 -8.65234375 2.8515625 C-10.09951706 2.94306431 -11.54993684 3 -13 3 C-13.33 3.66 -13.66 4.32 -14 5 C-14.66 4.67 -15.32 4.34 -16 4 C-16 3.34 -16 2.68 -16 2 C-17.65 2.33 -19.3 2.66 -21 3 C-19 0 -19 0 -17.18359375 -0.6796875 C-11.5372851 -1.50794745 -5.52847414 -1.47425977 0 0 Z " fill="#544FB0" transform="translate(269,274)"/>
<path d="M0 0 C0.66 0.33 1.32 0.66 2 1 C1.154375 1.81082031 0.30875 2.62164062 -0.5625 3.45703125 C-7.51192695 10.20968929 -13.62512171 16.89708681 -19 25 C-20 22 -20 22 -19.3125 20.0625 C-17.80636067 17.69570962 -16.01104279 15.94617044 -14 14 C-13.67 13.34 -13.34 12.68 -13 12 C-12.34 12 -11.68 12 -11 12 C-10.67 11.01 -10.34 10.02 -10 9 C-8.3540349 7.31288577 -6.68762851 5.6454378 -5 4 C-4.67 3.34 -4.34 2.68 -4 2 C-2.0625 0.8125 -2.0625 0.8125 0 0 Z " fill="#4DABD0" transform="translate(198,167)"/>
<path d="M0 0 C0.33 0.66 0.66 1.32 1 2 C1.66 2 2.32 2 3 2 C3 2.66 3 3.32 3 4 C3.66 4 4.32 4 5 4 C5 4.66 5 5.32 5 6 C5.556875 6.226875 6.11375 6.45375 6.6875 6.6875 C9.63246684 8.35896766 11.68156544 10.55276352 14 13 C11.125 13.625 11.125 13.625 8 14 C7.34 13.34 6.68 12.68 6 12 C3.93125966 11.3574765 3.93125966 11.3574765 2 11 C1.855625 10.195625 1.71125 9.39125 1.5625 8.5625 C1.25864751 6.07896294 1.25864751 6.07896294 0 5 C-0.04063832 3.33382885 -0.042721 1.66611905 0 0 Z " fill="#8578C5" transform="translate(208,300)"/>
<path d="M0 0 C5.94 0 11.88 0 18 0 C18 0.99 18 1.98 18 3 C25.59 3 33.18 3 41 3 C41 3.33 41 3.66 41 4 C26.97450119 4.34536839 13.71266715 4.13006533 0 1 C0 0.67 0 0.34 0 0 Z " fill="#666695" transform="translate(236,368)"/>
<path d="M0 0 C0.99 0 1.98 0 3 0 C3.33 1.65 3.66 3.3 4 5 C3.34 5 2.68 5 2 5 C0.39147628 7.68087287 -0.07056307 9.52040267 -0.5 12.6875 C-0.665 13.780625 -0.83 14.87375 -1 16 C-1.66 16.33 -2.32 16.66 -3 17 C-3 15.02 -3 13.04 -3 11 C-3.66 11 -4.32 11 -5 11 C-3.78310457 6.97488434 -2.50546238 3.40742883 0 0 Z " fill="#5191BC" transform="translate(225,208)"/>
<path d="M0 0 C6.15334773 5.98704104 6.15334773 5.98704104 8 9 C8 10.32 8 11.64 8 13 C6.02 13 4.04 13 2 13 C2 12.34 2 11.68 2 11 C1.34 11 0.68 11 0 11 C0.185625 10.113125 0.37125 9.22625 0.5625 8.3125 C0.98042484 5.14821189 0.80777742 3.05160358 0 0 Z " fill="#7263C4" transform="translate(200,291)"/>
<path d="M0 0 C0.99 0 1.98 0 3 0 C4.61222148 3.52673449 5.20358167 6.1319482 5 10 C5 10.99 5 11.98 5 13 C4.01 14.485 4.01 14.485 3 16 C2.34 16 1.68 16 1 16 C0.67 10.72 0.34 5.44 0 0 Z " fill="#6A65AD" transform="translate(313,277)"/>
<path d="M0 0 C0.68964844 0.0721875 1.37929688 0.144375 2.08984375 0.21875 C6.76403472 0.68039849 11.36286659 1.06123301 16.0625 1 C20 1 20 1 22 2 C22.33 1.34 22.66 0.68 23 0 C24.65 0 26.3 0 28 0 C25.55312961 2.44687039 23.8880324 2.96036711 20.45629883 3.11352539 C19.46654053 3.10828857 18.47678223 3.10305176 17.45703125 3.09765625 C16.38388672 3.09443359 15.31074219 3.09121094 14.20507812 3.08789062 C13.08552734 3.07951172 11.96597656 3.07113281 10.8125 3.0625 C9.68134766 3.05798828 8.55019531 3.05347656 7.38476562 3.04882812 C4.58979073 3.03703498 1.7949218 3.0205765 -1 3 C-0.67 2.01 -0.34 1.02 0 0 Z " fill="#24265D" transform="translate(255,368)"/>
<path d="M0 0 C0.33 0 0.66 0 1 0 C1.43770996 5.20562199 0.23525651 7.97905204 -2.5 12.375 C-3.1496875 13.43460937 -3.799375 14.49421875 -4.46875 15.5859375 C-4.9740625 16.38257813 -5.479375 17.17921875 -6 18 C-7.078125 16.1875 -7.078125 16.1875 -8 14 C-6.75 11 -6.75 11 -5 8 C-4.608125 7.21625 -4.21625 6.4325 -3.8125 5.625 C-3.544375 5.08875 -3.27625 4.5525 -3 4 C-2.01 4 -1.02 4 0 4 C0 2.68 0 1.36 0 0 Z " fill="#47467B" transform="translate(351,316)"/>
<path d="M0 0 C0.33 0 0.66 0 1 0 C1.66 8.25 2.32 16.5 3 25 C1.68 24.34 0.36 23.68 -1 23 C-0.979375 22.195625 -0.95875 21.39125 -0.9375 20.5625 C-0.70366379 18.06645115 -0.70366379 18.06645115 -2 17 C-2.125 14.5 -2.125 14.5 -2 12 C-1.67 11.67 -1.34 11.34 -1 11 C-0.76636119 9.15108054 -0.58696365 7.29511969 -0.4375 5.4375 C-0.35371094 4.42558594 -0.26992187 3.41367188 -0.18359375 2.37109375 C-0.12300781 1.58863281 -0.06242188 0.80617187 0 0 Z " fill="#6F71AD" transform="translate(185,238)"/>
<path d="M0 0 C0.99 0 1.98 0 3 0 C2.41827275 3.9520518 0.44842259 6.22095053 -2.0625 9.25 C-2.79597656 10.14203125 -3.52945313 11.0340625 -4.28515625 11.953125 C-4.85105469 12.62859375 -5.41695312 13.3040625 -6 14 C-6.66 13.01 -7.32 12.02 -8 11 C-7.125 8.3125 -7.125 8.3125 -6 6 C-5.34 6 -4.68 6 -4 6 C-3.71125 5.38125 -3.4225 4.7625 -3.125 4.125 C-2 2 -2 2 0 0 Z " fill="#5EB2C4" transform="translate(172,162)"/>
<path d="M0 0 C3.29054553 2.98361829 5.221442 5.90245093 7.1875 9.875 C7.69667969 10.88304687 8.20585937 11.89109375 8.73046875 12.9296875 C9.99605973 15.99047061 10.59410771 18.72352006 11 22 C10.34 21.34 9.68 20.68 9 20 C9 19.01 9 18.02 9 17 C8.39671875 16.8040625 7.7934375 16.608125 7.171875 16.40625 C4.01537586 14.36247358 3.50239532 11.99433755 2.25 8.5 C1.82203125 7.3346875 1.3940625 6.169375 0.953125 4.96875 C0 2 0 2 0 0 Z " fill="#696CA2" transform="translate(347,247)"/>
<path d="M0 0 C0.99 0.33 1.98 0.66 3 1 C2.87625 1.7425 2.7525 2.485 2.625 3.25 C2.74875 4.1575 2.8725 5.065 3 6 C5.79787307 8.19867777 5.79787307 8.19867777 9 10 C10.875 11.75 10.875 11.75 12 13 C10 14 10 14 6.9375 13.1875 C4 12 4 12 3 10 C2.34 10 1.68 10 1 10 C0.71125 9.195625 0.4225 8.39125 0.125 7.5625 C-0.73262568 4.8673532 -0.73262568 4.8673532 -3 4 C-2.67 3.01 -2.34 2.02 -2 1 C-1.34 0.67 -0.68 0.34 0 0 Z " fill="#37397B" transform="translate(180,328)"/>
<path d="M0 0 C3.96 0 7.92 0 12 0 C9.09380915 2.90619085 5.58122604 3.20698626 1.6875 4.0625 C0.92759766 4.23587891 0.16769531 4.40925781 -0.61523438 4.58789062 C-4.39987395 5.446093 -8.18977226 6.26229124 -12 7 C-12 6.01 -12 5.02 -12 4 C-8.04 3.34 -4.08 2.68 0 2 C0 1.34 0 0.68 0 0 Z " fill="#5772A2" transform="translate(245,168)"/>
<path d="M0 0 C0.99 0 1.98 0 3 0 C3 0.66 3 1.32 3 2 C3.763125 1.67 4.52625 1.34 5.3125 1 C8 0 8 0 11 0 C11 0.66 11 1.32 11 2 C9.1015625 3.5078125 9.1015625 3.5078125 6.625 5.125 C5.40683594 5.93324219 5.40683594 5.93324219 4.1640625 6.7578125 C2 8 2 8 0 8 C0 5.36 0 2.72 0 0 Z " fill="#987FDF" transform="translate(304,329)"/>
<path d="M0 0 C0.88921143 0.20568604 0.88921143 0.20568604 1.79638672 0.41552734 C8.26220818 1.82146906 14.52081453 2.40238701 21.125 2.625 C22.55972656 2.68300781 22.55972656 2.68300781 24.0234375 2.7421875 C26.34878199 2.83520128 28.67414335 2.92103771 31 3 C31 3.33 31 3.66 31 4 C26.79284906 4.25594323 22.58455162 4.47500935 18.375 4.6875 C17.18519531 4.76033203 15.99539063 4.83316406 14.76953125 4.90820312 C3.87831038 5.425384 3.87831038 5.425384 -1 2 C-0.67 1.34 -0.34 0.68 0 0 Z " fill="#BA9DDE" transform="translate(241,323)"/>
<path d="M0 0 C-0.99 0 -1.98 0 -3 0 C-3 0.66 -3 1.32 -3 2 C-2.01 2.33 -1.02 2.66 0 3 C-6.625 5.875 -6.625 5.875 -10 7 C-10.33 7.66 -10.66 8.32 -11 9 C-11 8.01 -11 7.02 -11 6 C-11.66 5.67 -12.32 5.34 -13 5 C-4.9 -1.75 -4.9 -1.75 0 0 Z " fill="#5B9CBC" transform="translate(239,202)"/>
<path d="M0 0 C0.66 0 1.32 0 2 0 C1.690625 0.721875 1.38125 1.44375 1.0625 2.1875 C-0.05781507 4.91524983 -0.05781507 4.91524983 -0.5 7.5625 C-1.24014114 11.17068806 -2.39909416 13.39909416 -5 16 C-5.66 16 -6.32 16 -7 16 C-5.43820369 10.01311416 -3.94958365 4.84142511 0 0 Z " fill="#295392" transform="translate(176,198)"/>
<path d="M0 0 C0 0.99 0 1.98 0 3 C-1.010625 3 -2.02125 3 -3.0625 3 C-7.79420827 3.60836249 -9.86918524 6.72651957 -12.71484375 10.28515625 C-13.35099609 11.13400391 -13.35099609 11.13400391 -14 12 C-14.99 11.67 -15.98 11.34 -17 11 C-15.51274143 7.24446438 -13.46311646 5.54833359 -10.1875 3.25 C-9.33542969 2.63640625 -8.48335937 2.0228125 -7.60546875 1.390625 C-4.77909134 -0.11790627 -3.15098082 -0.29416697 0 0 Z M-19 11 C-17 12 -17 12 -17 12 Z " fill="#50CCD5" transform="translate(207,140)"/>
<path d="M0 0 C3.70791544 -0.14592789 7.41508726 -0.23427895 11.125 -0.3125 C12.69507813 -0.3753418 12.69507813 -0.3753418 14.296875 -0.43945312 C23.02566964 -0.57756696 23.02566964 -0.57756696 26.7421875 2.51953125 C27.85980469 3.74736328 27.85980469 3.74736328 29 5 C27.68 5.33 26.36 5.66 25 6 C25 5.34 25 4.68 25 4 C24.34 4 23.68 4 23 4 C23 3.34 23 2.68 23 2 C21.92621094 2.01160156 20.85242188 2.02320313 19.74609375 2.03515625 C18.30989759 2.04454315 16.87369952 2.05364238 15.4375 2.0625 C14.38079102 2.07506836 14.38079102 2.07506836 13.30273438 2.08789062 C8.75975202 2.10882603 4.48215108 1.74800682 0 1 C0 0.67 0 0.34 0 0 Z " fill="#88ADC8" transform="translate(249,199)"/>
<path d="M0 0 C0.33 0 0.66 0 1 0 C2.65642737 7.45392316 2.72005735 15.56006938 1 23 C-1.45410358 19.31884463 -1.23287843 17.34706402 -1 13 C-0.67 12.01 -0.34 11.02 0 10 C-0.66 10 -1.32 10 -2 10 C-1.34 6.7 -0.68 3.4 0 0 Z " fill="#3D3F7D" transform="translate(357,278)"/>
<path d="M0 0 C0.66 0.66 1.32 1.32 2 2 C-2.1205746 3.99785435 -5.45194365 4.17835515 -10 4 C-10 4.99 -10 5.98 -10 7 C-11.65 6.67 -13.3 6.34 -15 6 C-14.67 5.01 -14.34 4.02 -14 3 C-9.44103761 1.35877354 -4.83046379 0.37885991 0 0 Z " fill="#305D9D" transform="translate(243,168)"/>
<path d="M0 0 C0.33 0 0.66 0 1 0 C1.64715133 2.0829243 2.29267166 4.16635539 2.9375 6.25 C3.47697266 7.99023438 3.47697266 7.99023438 4.02734375 9.765625 C4.75066637 12.17089058 5.42542411 14.55654044 6 17 C4.68 16.67 3.36 16.34 2 16 C1.34 12.7 0.68 9.4 0 6 C-0.66 6 -1.32 6 -2 6 C-1.33333333 4 -0.66666667 2 0 0 Z " fill="#7773B1" transform="translate(188,263)"/>
<path d="M0 0 C-0.99 0.33 -1.98 0.66 -3 1 C-3 1.99 -3 2.98 -3 4 C-5.6875 5.1875 -5.6875 5.1875 -9 6 C-11.625 4.75 -11.625 4.75 -14 3 C-15.32455079 2.31605014 -16.65661994 1.64618281 -18 1 C-15.75152519 0.63627613 -13.50113812 0.28435904 -11.25 -0.0625 C-9.99703125 -0.25972656 -8.7440625 -0.45695313 -7.453125 -0.66015625 C-4.49983411 -0.95080818 -2.7397586 -0.98935727 0 0 Z " fill="#6C86B8" transform="translate(273,233)"/>
<path d="M0 0 C5.52380952 1.44099379 5.52380952 1.44099379 7.4375 3.6875 C8.23458406 6.96440112 7.63025067 9.72269653 7 13 C6.67 13 6.34 13 6 13 C6 11.35 6 9.7 6 8 C5.34 8 4.68 8 4 8 C3.34 7.01 2.68 6.02 2 5 C1.01 4.67 0.02 4.34 -1 4 C-0.67 2.68 -0.34 1.36 0 0 Z " fill="#588CB7" transform="translate(272,203)"/>
<path d="M0 0 C10.93025271 1.28253403 10.93025271 1.28253403 14.1875 4.625 C14.785625 5.40875 15.38375 6.1925 16 7 C14 8 14 8 11.25 7.109375 C10.1775 6.66078125 9.105 6.2121875 8 5.75 C6.39125 5.09257812 6.39125 5.09257812 4.75 4.421875 C2 3 2 3 0 0 Z " fill="#4C4E7E" transform="translate(212,358)"/>
<path d="M0 0 C0.66 0.66 1.32 1.32 2 2 C1.76854861 6.44237353 -0.08429711 8.64520486 -3.0625 11.8125 C-4.16271484 12.99779297 -4.16271484 12.99779297 -5.28515625 14.20703125 C-5.85105469 14.79871094 -6.41695313 15.39039063 -7 16 C-7.33 15.34 -7.66 14.68 -8 14 C-7.236875 12.989375 -6.47375 11.97875 -5.6875 10.9375 C-3.17660085 7.44221425 -1.55278725 4.0045566 0 0 Z M-10 16 C-9.01 16.495 -9.01 16.495 -8 17 C-8.99 17.495 -8.99 17.495 -10 18 C-10 17.34 -10 16.68 -10 16 Z " fill="#3F408F" transform="translate(333,305)"/>
<path d="M0 0 C1.875 0.1875 1.875 0.1875 4 1 C6.30238787 4.91405938 6.17461992 8.54719212 6 13 C5.38125 12.175 4.7625 11.35 4.125 10.5 C3.42375 9.675 2.7225 8.85 2 8 C1.34 8 0.68 8 0 8 C0 5.36 0 2.72 0 0 Z " fill="#3E427F" transform="translate(352,263)"/>
<path d="M0 0 C0.99 0 1.98 0 3 0 C2.67 3.63 2.34 7.26 2 11 C1.01 11.33 0.02 11.66 -1 12 C-2.1875 9.9375 -2.1875 9.9375 -3 7 C-2.27873258 4.45187276 -1.21291073 2.37917104 0 0 Z " fill="#5993B6" transform="translate(150,196)"/>
<path d="M0 0 C1.4540625 0.0309375 1.4540625 0.0309375 2.9375 0.0625 C0.21448513 2.78551487 -2.66158228 4.24057979 -6.0625 6.0625 C-6.7225 6.0625 -7.3825 6.0625 -8.0625 6.0625 C-8.0625 5.4025 -8.0625 4.7425 -8.0625 4.0625 C-9.135 4.413125 -10.2075 4.76375 -11.3125 5.125 C-15.98557692 6.29326923 -15.98557692 6.29326923 -19.0625 5.0625 C-14.88466641 3.11284432 -10.67678102 2.33369527 -6.171875 1.52734375 C-3.1211267 0.85504922 -3.47532026 0.0709249 0 0 Z " fill="#51CDD2" transform="translate(235.0625,128.9375)"/>
<path d="M0 0 C0.33 0 0.66 0 1 0 C1 4.62 1 9.24 1 14 C1.66 14 2.32 14 3 14 C2.67 16.31 2.34 18.62 2 21 C1.01 21.33 0.02 21.66 -1 22 C-0.67 14.74 -0.34 7.48 0 0 Z " fill="#5657A6" transform="translate(221,258)"/>
<path d="M0 0 C3.1383841 0.33928477 4.5934547 0.54989627 6.75 2.9375 C8 5 8 5 9 7 C9.66 7.33 10.32 7.66 11 8 C10.67 9.32 10.34 10.64 10 12 C8.70212134 10.75645114 7.41193241 9.5048736 6.125 8.25 C5.40570313 7.55390625 4.68640625 6.8578125 3.9453125 6.140625 C2.13520321 4.14877783 1.05151914 2.4572342 0 0 Z " fill="#56528C" transform="translate(170,326)"/>
<path d="M0 0 C0.66 0 1.32 0 2 0 C1.43040847 3.62613199 0.07625466 5.25517741 -2.5625 7.75 C-3.52349609 8.67039063 -3.52349609 8.67039063 -4.50390625 9.609375 C-4.99761719 10.06828125 -5.49132812 10.5271875 -6 11 C-6.64453125 9.1640625 -6.64453125 9.1640625 -7 7 C-4.6875 4.375 -4.6875 4.375 -2 2 C-1.34 1.34 -0.68 0.68 0 0 Z " fill="#4A6394" transform="translate(214,182)"/>
<path d="M0 0 C0.66 0 1.32 0 2 0 C2.25 3.3125 2.25 3.3125 2 7 C0.1875 8.9375 0.1875 8.9375 -2 10 C-2.99 10 -3.98 10 -5 10 C-4.34 8.35 -3.68 6.7 -3 5 C-2.34 5 -1.68 5 -1 5 C-0.67 3.35 -0.34 1.7 0 0 Z " fill="#343671" transform="translate(340,331)"/>
<path d="M0 0 C0.33 0 0.66 0 1 0 C2.15664737 5.48269069 2.11416255 10.80339274 2.0625 16.375 C2.05798828 17.30183594 2.05347656 18.22867187 2.04882812 19.18359375 C2.03711574 21.45579709 2.02071372 23.72786388 2 26 C1.67 26 1.34 26 1 26 C0.63496057 22.98012839 0.28269772 19.95965035 -0.0625 16.9375 C-0.16626953 16.08994141 -0.27003906 15.24238281 -0.37695312 14.36914062 C-0.94186047 9.32393367 -0.96798903 4.98886652 0 0 Z " fill="#7C7DA8" transform="translate(358,269)"/>
<path d="M0 0 C0.66 0.33 1.32 0.66 2 1 C-1.55505845 5.57078943 -5.15060757 9.76707172 -10 13 C-10.66 13 -11.32 13 -12 13 C-10.44997253 9.11602311 -7.99523379 6.97020381 -4.875 4.25 C-3.96492187 3.45078125 -3.05484375 2.6515625 -2.1171875 1.828125 C-1.06917969 0.92320312 -1.06917969 0.92320312 0 0 Z " fill="#7CC1CD" transform="translate(185,149)"/>
<path d="M0 0 C0.66 0.33 1.32 0.66 2 1 C2 1.66 2 2.32 2 3 C4.31 3.66 6.62 4.32 9 5 C9 6.65 9 8.3 9 10 C6.00779732 8.63629701 3.70973471 7.05091917 1.25 4.875 C0.63640625 4.33617187 0.0228125 3.79734375 -0.609375 3.2421875 C-1.06828125 2.83226562 -1.5271875 2.42234375 -2 2 C-1.34 1.34 -0.68 0.68 0 0 Z " fill="#5B588B" transform="translate(183,337)"/>
<path d="M0 0 C7.01834862 2.02752294 7.01834862 2.02752294 9 5 C9.1875 7.6875 9.1875 7.6875 9 10 C7.68 10 6.36 10 5 10 C5.33 8.02 5.66 6.04 6 4 C4.35 3.67 2.7 3.34 1 3 C0.67 2.01 0.34 1.02 0 0 Z " fill="#236297" transform="translate(259,151)"/>
<path d="M0 0 C2.97 0.495 2.97 0.495 6 1 C3.84655717 3.40243465 2.03125235 4.60244944 -1 5.6875 C-1.680625 5.93886719 -2.36125 6.19023437 -3.0625 6.44921875 C-5 7 -5 7 -8 7 C-7.67 6.01 -7.34 5.02 -7 4 C-5.02 4.495 -5.02 4.495 -3 5 C-3.33 4.01 -3.66 3.02 -4 2 C-2.68 2 -1.36 2 0 2 C0 1.34 0 0.68 0 0 Z " fill="#977FDC" transform="translate(296,337)"/>
<path d="M0 0 C0.33 0 0.66 0 1 0 C1.36787834 6.13130564 0.40168553 10.11797737 -3.5625 14.875 C-5 16 -5 16 -7 16 C-6.625 14.0625 -6.625 14.0625 -6 12 C-5.34 11.67 -4.68 11.34 -4 11 C-3.67 10.01 -3.34 9.02 -3 8 C-2.34 8 -1.68 8 -1 8 C-0.67 5.36 -0.34 2.72 0 0 Z " fill="#6E63A7" transform="translate(280,282)"/>
<path d="M0 0 C1.13667209 3.41001627 0.87448905 3.92676657 -0.375 7.125 C-2.04966881 11.78195573 -2.60914123 16.07517953 -3 21 C-3.33 21 -3.66 21 -4 21 C-4 16.38 -4 11.76 -4 7 C-3.34 7 -2.68 7 -2 7 C-2.04125 6.21625 -2.0825 5.4325 -2.125 4.625 C-2 2 -2 2 0 0 Z " fill="#6B6FAA" transform="translate(190,217)"/>
<path d="M0 0 C1.43088528 2.86177057 0.59991697 4.93375773 0 8 C0.66 8.33 1.32 8.66 2 9 C2 9.66 2 10.32 2 11 C0.576875 11.2165625 0.576875 11.2165625 -0.875 11.4375 C-3.8934494 11.82935399 -3.8934494 11.82935399 -6 13 C-5.6875 11.125 -5.6875 11.125 -5 9 C-4.01 8.34 -3.02 7.68 -2 7 C-1.34227572 3.97065509 -1.34227572 3.97065509 -1 1 C-0.67 0.67 -0.34 0.34 0 0 Z " fill="#48A2C0" transform="translate(165,172)"/>
<path d="M0 0 C2.64 1.98 5.28 3.96 8 6 C6.02 6.99 6.02 6.99 4 8 C1 6 1 6 0.3125 2.875 C0.209375 1.92625 0.10625 0.9775 0 0 Z M1 8 C1.66 8 2.32 8 3 8 C2.67 8.99 2.34 9.98 2 11 C1.67 10.01 1.34 9.02 1 8 Z " fill="#6673AF" transform="translate(335,235)"/>
<path d="M0 0 C0 0.66 0 1.32 0 2 C-1.0725 2.12375 -2.145 2.2475 -3.25 2.375 C-6.80770703 2.75587996 -6.80770703 2.75587996 -8.9375 4.0625 C-11.49087684 5.22312584 -12.99868005 5.02960587 -15.75 4.625 C-16.54921875 4.51414063 -17.3484375 4.40328125 -18.171875 4.2890625 C-18.77515625 4.19367188 -19.3784375 4.09828125 -20 4 C-20 3.67 -20 3.34 -20 3 C-17.22970414 2.49685437 -14.4588348 1.99736162 -11.6875 1.5 C-10.90181641 1.35691406 -10.11613281 1.21382812 -9.30664062 1.06640625 C-8.54931641 0.93105469 -7.79199219 0.79570312 -7.01171875 0.65625 C-6.31522217 0.53056641 -5.61872559 0.40488281 -4.90112305 0.27539062 C-3 0 -3 0 0 0 Z " fill="#4E6AA2" transform="translate(282,231)"/>
<path d="M0 0 C-0.37392721 2.71097227 -0.81357627 3.82000467 -2.8125 5.75 C-5 7 -5 7 -9 7 C-7.4576387 2.93377477 -4.5679954 0 0 0 Z " fill="#37396B" transform="translate(324,351)"/>
<path d="M0 0 C0.99 0.66 1.98 1.32 3 2 C6.19806665 2.4603764 6.19806665 2.4603764 9.6875 2.625 C11.45673828 2.73714844 11.45673828 2.73714844 13.26171875 2.8515625 C14.61716797 2.92503906 14.61716797 2.92503906 16 3 C16 3.33 16 3.66 16 4 C13.56305726 4.24878997 11.12761611 4.47463404 8.6875 4.6875 C7.65206055 4.79674805 7.65206055 4.79674805 6.59570312 4.90820312 C1.44325817 5.33135078 1.44325817 5.33135078 -0.98046875 3.51953125 C-1.31691406 3.01808594 -1.65335938 2.51664062 -2 2 C-1.34 2 -0.68 2 0 2 C0 1.34 0 0.68 0 0 Z " fill="#867EC1" transform="translate(247,269)"/>
<path d="M0 0 C1.65 0.33 3.3 0.66 5 1 C5 2.98 5 4.96 5 7 C4.01 7.495 4.01 7.495 3 8 C2.34 6.68 1.68 5.36 1 4 C0.01 4.495 0.01 4.495 -1 5 C-0.67 3.35 -0.34 1.7 0 0 Z " fill="#6B61BC" transform="translate(195,288)"/>
<path d="M0 0 C9.41002278 -0.18451025 9.41002278 -0.18451025 14 1 C13.67 1.66 13.34 2.32 13 3 C8.71 2.67 4.42 2.34 0 2 C0 1.34 0 0.68 0 0 Z " fill="#4F4A96" transform="translate(255,273)"/>
<path d="M0 0 C0.99 0.33 1.98 0.66 3 1 C3.6875 3.0625 3.6875 3.0625 4 5 C2.35 5.33 0.7 5.66 -1 6 C-1.66 5.01 -2.32 4.02 -3 3 C-2.01 2.01 -1.02 1.02 0 0 Z " fill="#2D3C84" transform="translate(250,254)"/>
<path d="M0 0 C0.66 0 1.32 0 2 0 C2.33 0.99 2.66 1.98 3 3 C2.34 3.66 1.68 4.32 1 5 C0.35232207 7.57061311 0.35232207 7.57061311 0 10 C-0.99 9.67 -1.98 9.34 -3 9 C-2.67 6.69 -2.34 4.38 -2 2 C-1.34 2 -0.68 2 0 2 C0 1.34 0 0.68 0 0 Z " fill="#394C94" transform="translate(188,214)"/>
<path d="M0 0 C0.33 0 0.66 0 1 0 C1.66 2.97 2.32 5.94 3 9 C2.34 9 1.68 9 1 9 C0.34 10.65 -0.32 12.3 -1 14 C-2.35401611 11.29196778 -1.91421523 9.43517683 -1.625 6.4375 C-1.53476563 5.44621094 -1.44453125 4.45492187 -1.3515625 3.43359375 C-1 1 -1 1 0 0 Z " fill="#4581B1" transform="translate(148,204)"/>
<path d="M0 0 C1.231394 2.46278801 1.07159196 4.2795055 1 7 C0.38125 7.268125 -0.2375 7.53625 -0.875 7.8125 C-3.2995233 8.95556848 -3.2995233 8.95556848 -5 12 C-5.33 11.01 -5.66 10.02 -6 9 C-4.78515625 6.73828125 -4.78515625 6.73828125 -3.0625 4.3125 C-2.49660156 3.50425781 -1.93070313 2.69601563 -1.34765625 1.86328125 C-0.90292969 1.24839844 -0.45820313 0.63351563 0 0 Z " fill="#6AABC2" transform="translate(163,173)"/>
<path d="M0 0 C1.98 0.66 3.96 1.32 6 2 C5.67 3.32 5.34 4.64 5 6 C5.66 6 6.32 6 7 6 C6.34 7.32 5.68 8.64 5 10 C5 9.01 5 8.02 5 7 C3.68 6.67 2.36 6.34 1 6 C0.67 4.02 0.34 2.04 0 0 Z " fill="#424386" transform="translate(152,295)"/>
<path d="M0 0 C9.17286652 0.35010941 9.17286652 0.35010941 12.625 3.0625 C13.07875 3.701875 13.5325 4.34125 14 5 C12.68 5 11.36 5 10 5 C10 4.34 10 3.68 10 3 C8.02 3.33 6.04 3.66 4 4 C4 3.34 4 2.68 4 2 C2.68 1.34 1.36 0.68 0 0 Z " fill="#7670AE" transform="translate(264,273)"/>
<path d="M0 0 C0.33 1.32 0.66 2.64 1 4 C-1.70915709 4.90305236 -4.17042171 5.63723355 -7 6 C-7.66 5.34 -8.32 4.68 -9 4 C-8.01 4 -7.02 4 -6 4 C-5.67 3.34 -5.34 2.68 -5 2 C-3.35636866 1.27840576 -1.68949614 0.60648579 0 0 Z " fill="#262962" transform="translate(294,363)"/>
<path d="M0 0 C0.33 0.66 0.66 1.32 1 2 C1.33 1.34 1.66 0.68 2 0 C2.66 0 3.32 0 4 0 C5.03789581 1.64333504 6.03567924 3.31243867 7 5 C7.66 5.66 8.32 6.32 9 7 C4.48521602 6.46884894 1.65333143 4.63379708 -2 2 C-1.34 1.34 -0.68 0.68 0 0 Z " fill="#7B69CC" transform="translate(211,329)"/>
<path d="M0 0 C2.64 1.98 5.28 3.96 8 6 C6.02 6.99 6.02 6.99 4 8 C1.44971017 6.72485508 1.06918289 5.59658703 0 3 C0 2.01 0 1.02 0 0 Z " fill="#9080CE" transform="translate(214,306)"/>
<path d="M0 0 C0.66 0.33 1.32 0.66 2 1 C1.67 2.65 1.34 4.3 1 6 C0.34 6 -0.32 6 -1 6 C-1 7.98 -1 9.96 -1 12 C-1.66 12 -2.32 12 -3 12 C-2.88541307 10.56163249 -2.75790884 9.12429034 -2.625 7.6875 C-2.55539062 6.88699219 -2.48578125 6.08648437 -2.4140625 5.26171875 C-2 3 -2 3 0 0 Z " fill="#353974" transform="translate(355,302)"/>
<path d="M0 0 C-1.77945087 4.04420651 -4.39529673 7.46078487 -7 11 C-8 8 -8 8 -7.3125 6.0625 C-3.45454545 0 -3.45454545 0 0 0 Z " fill="#4A9DC9" transform="translate(186,181)"/>
<path d="M0 0 C0.8971875 0.309375 0.8971875 0.309375 1.8125 0.625 C-5.30139522 6.18080866 -5.30139522 6.18080866 -10.1875 6.625 C-3.20231959 -0.54896907 -3.20231959 -0.54896907 0 0 Z " fill="#72C2CE" transform="translate(197.1875,142.375)"/>
<path d="M0 0 C0.33 0.99 0.66 1.98 1 3 C-3.39436211 3.85743651 -7.52572076 4.08948558 -12 4 C-8.14070855 1.42713903 -4.66785662 0 0 0 Z " fill="#AF9CDA" transform="translate(287,322)"/>
<path d="M0 0 C4.29 0.33 8.58 0.66 13 1 C12.01 2.485 12.01 2.485 11 4 C8.375 4.1875 8.375 4.1875 6 4 C6 3.34 6 2.68 6 2 C4.35 2 2.7 2 1 2 C0.67 1.34 0.34 0.68 0 0 Z " fill="#554EAB" transform="translate(239,294)"/>
<path d="M0 0 C0.99 0.33 1.98 0.66 3 1 C3 2.32 3 3.64 3 5 C3.66 5 4.32 5 5 5 C4.67 6.98 4.34 8.96 4 11 C3.525625 10.360625 3.05125 9.72125 2.5625 9.0625 C1.16261274 7.11706694 1.16261274 7.11706694 0 6 C-0.04080783 4.00041636 -0.04254356 1.99954746 0 0 Z " fill="#626AAD" transform="translate(243,258)"/>
<path d="M0 0 C0.66 0 1.32 0 2 0 C1.43628586 3.26954202 0.50037734 4.82575883 -2 7 C-2.66 6.67 -3.32 6.34 -4 6 C-4.625 3.9375 -4.625 3.9375 -5 2 C-3.35 1.67 -1.7 1.34 0 1 C0 0.67 0 0.34 0 0 Z " fill="#3A3D82" transform="translate(174,320)"/>
<path d="M0 0 C0.598125 0.309375 1.19625 0.61875 1.8125 0.9375 C4.08956772 2.10209704 4.08956772 2.10209704 7 3 C6.67 3.66 6.34 4.32 6 5 C5.34 5 4.68 5 4 5 C4 5.66 4 6.32 4 7 C3.01 7 2.02 7 1 7 C0.67 4.69 0.34 2.38 0 0 Z " fill="#5853A2" transform="translate(311,270)"/>
<path d="M0 0 C2.94721162 2.74395564 5.19168608 5.38337216 7 9 C6.67 9.66 6.34 10.32 6 11 C3.57223333 9.70519111 2.23032326 8.64161481 1.2890625 6.01953125 C0.80217802 4.0261274 0.39608139 2.01341375 0 0 Z " fill="#7179A7" transform="translate(347,247)"/>
<path d="M0 0 C0.66 0.33 1.32 0.66 2 1 C1.814375 1.94875 1.62875 2.8975 1.4375 3.875 C0.71313368 6.89868793 0.71313368 6.89868793 2 9 C1.34 9 0.68 9 0 9 C-0.33 9.99 -0.66 10.98 -1 12 C-1.33 12 -1.66 12 -2 12 C-2.21278058 7.53160785 -1.59138085 4.17737474 0 0 Z " fill="#4499BE" transform="translate(157,184)"/>
<path d="M0 0 C3.52269485 -0.4025937 4.79940808 -0.13372795 7.8125 1.875 C8.534375 2.57625 9.25625 3.2775 10 4 C10 4.66 10 5.32 10 6 C8.02 5.34 6.04 4.68 4 4 C4 3.34 4 2.68 4 2 C2.68 1.34 1.36 0.68 0 0 Z " fill="#6DA3BF" transform="translate(259,130)"/>
<path d="M0 0 C3.06393013 -0.25532751 4.63233212 -0.21861333 7.3125 1.375 C7.869375 1.91125 8.42625 2.4475 9 3 C9 3.66 9 4.32 9 5 C6.75 5.3125 6.75 5.3125 4 5 C1.6875 2.5 1.6875 2.5 0 0 Z " fill="#33346B" transform="translate(202,352)"/>
<path d="M0 0 C0.99 0.495 0.99 0.495 2 1 C1.01 1.495 1.01 1.495 0 2 C0 1.34 0 0.68 0 0 Z M-2 2 C-1.34 2.33 -0.68 2.66 0 3 C-0.66 4.65 -1.32 6.3 -2 8 C-4.31 8 -6.62 8 -9 8 C-8.21625 7.38125 -7.4325 6.7625 -6.625 6.125 C-4.03162353 4.10141339 -4.03162353 4.10141339 -2 2 Z " fill="#9279D6" transform="translate(305,310)"/>
<path d="M0 0 C5.625 -0.25 5.625 -0.25 9 2 C10.65549531 2.38499891 12.3222433 2.72793135 14 3 C14 3.33 14 3.66 14 4 C8.34605369 4.34615998 4.96993194 3.43425238 0 1 C0 0.67 0 0.34 0 0 Z " fill="#675FA7" transform="translate(231,293)"/>
<path d="M0 0 C2.96404505 2.80804268 5.44499019 5.18315774 7 9 C3.34683329 7.75023244 2.21934164 7.32901247 0 4 C0 2.68 0 1.36 0 0 Z " fill="#8B81C2" transform="translate(200,291)"/>
<path d="M0 0 C0.99 1.32 1.98 2.64 3 4 C3.66 4.66 4.32 5.32 5 6 C3.625 8 3.625 8 2 10 C1.34 10 0.68 10 0 10 C0 6.7 0 3.4 0 0 Z " fill="#786DB5" transform="translate(314,283)"/>
<path d="M0 0 C1.32 0 2.64 0 4 0 C3.67 1.65 3.34 3.3 3 5 C2.01 5.33 1.02 5.66 0 6 C-0.38218767 4.34385343 -0.71395102 2.67542976 -1 1 C-0.67 0.67 -0.34 0.34 0 0 Z " fill="#42569F" transform="translate(339,242)"/>
<path d="M0 0 C-3.88717131 2.68399924 -7.72121973 4.96248559 -12 7 C-10.95724749 3.7558811 -9.38759509 2.39805336 -6.5625 0.6875 C-3 -1 -3 -1 0 0 Z " fill="#50B7D4" transform="translate(212,160)"/>
<path d="M0 0 C0.99 0.33 1.98 0.66 3 1 C3 1.99 3 2.98 3 4 C3.66 4 4.32 4 5 4 C6.38232443 5.62626404 7.71937515 7.2925002 9 9 C6.0280615 7.87548273 3.66559313 6.77706209 1 5 C0.3125 2.375 0.3125 2.375 0 0 Z " fill="#535382" transform="translate(197,347)"/>
<path d="M0 0 C-0.33 2.97 -0.66 5.94 -1 9 C-1.66 8.34 -2.32 7.68 -3 7 C-3.99 7.495 -3.99 7.495 -5 8 C-3.91891892 0 -3.91891892 0 0 0 Z " fill="#5D5F98" transform="translate(359,296)"/>
<path d="M0 0 C3 1 3 1 4.1875 3.3125 C5 6 5 6 5 10 C4.34 10 3.68 10 3 10 C2.01 6.7 1.02 3.4 0 0 Z " fill="#445191" transform="translate(344,245)"/>
<path d="M0 0 C0.99 0.33 1.98 0.66 3 1 C2.01 2.98 1.02 4.96 0 7 C-0.99 7 -1.98 7 -3 7 C-1.125 1.125 -1.125 1.125 0 0 Z " fill="#6099B5" transform="translate(225,208)"/>
<path d="M0 0 C0.99 0.33 1.98 0.66 3 1 C1.14285714 8.57142857 1.14285714 8.57142857 -2 11 C-2 9.35 -2 7.7 -2 6 C-1.34 6 -0.68 6 0 6 C0 4.02 0 2.04 0 0 Z " fill="#394E94" transform="translate(193,202)"/>
<path d="M0 0 C0.99 0.33 1.98 0.66 3 1 C0.74259377 3.33524782 -1.2805761 5.18705073 -4 7 C-4.99 6.67 -5.98 6.34 -7 6 C-5.1875 4 -5.1875 4 -3 2 C-2.01 2 -1.02 2 0 2 C0 1.34 0 0.68 0 0 Z " fill="#697EA7" transform="translate(265,161)"/>
<path d="M0 0 C1.9375 0.375 1.9375 0.375 4 1 C4.33 1.66 4.66 2.32 5 3 C1.7 3.66 -1.6 4.32 -5 5 C-4.67 4.01 -4.34 3.02 -4 2 C-2.02 2.495 -2.02 2.495 0 3 C0 2.01 0 1.02 0 0 Z " fill="#4A4979" transform="translate(295,364)"/>
<path d="M0 0 C2.31 0.33 4.62 0.66 7 1 C6.67 2.98 6.34 4.96 6 7 C5.34 6.67 4.68 6.34 4 6 C4 5.34 4 4.68 4 4 C3.34 4 2.68 4 2 4 C1.34 2.68 0.68 1.36 0 0 Z " fill="#5C598B" transform="translate(164,319)"/>
<path d="M0 0 C0.88336837 2.4667645 1.1312406 3.63859372 0.22265625 6.140625 C-0.16019531 6.83671875 -0.54304688 7.5328125 -0.9375 8.25 C-1.31777344 8.95640625 -1.69804687 9.6628125 -2.08984375 10.390625 C-2.39019531 10.92171875 -2.69054687 11.4528125 -3 12 C-4.12668965 8.61993106 -3.89636912 8.0359269 -2.625 4.875 C-2.34914063 4.17117188 -2.07328125 3.46734375 -1.7890625 2.7421875 C-1 1 -1 1 0 0 Z " fill="#7E76CD" transform="translate(332,303)"/>
<path d="M0 0 C0.99 0.33 1.98 0.66 3 1 C3 1.99 3 2.98 3 4 C3.31088368 5.67099977 3.64080332 7.33871537 4 9 C2.68 8.34 1.36 7.68 0 7 C0 4.69 0 2.38 0 0 Z " fill="#444388" transform="translate(149,284)"/>
<path d="M0 0 C3.3 0 6.6 0 10 0 C8.35 1.32 6.7 2.64 5 4 C1.125 2.25 1.125 2.25 0 0 Z " fill="#4599C4" transform="translate(236,203)"/>
<path d="M0 0 C0 0.33 0 0.66 0 1 C-4.29 1.99 -8.58 2.98 -13 4 C-13 3.01 -13 2.02 -13 1 C-8.61414671 0.29826347 -4.44209357 -0.10834375 0 0 Z " fill="#6C7DB3" transform="translate(246,171)"/>
<path d="M0 0 C1.21816406 0.03480469 1.21816406 0.03480469 2.4609375 0.0703125 C3.68683594 0.09738281 3.68683594 0.09738281 4.9375 0.125 C5.87722656 0.15980469 5.87722656 0.15980469 6.8359375 0.1953125 C7.1659375 1.1853125 7.4959375 2.1753125 7.8359375 3.1953125 C3.8759375 2.8653125 -0.0840625 2.5353125 -4.1640625 2.1953125 C-2.1640625 0.1953125 -2.1640625 0.1953125 0 0 Z " fill="#4AA7D0" transform="translate(250.1640625,146.8046875)"/>
<path d="M0 0 C1.875 0.25 1.875 0.25 4 1 C6.11103658 3.95545121 6.19785783 6.43855901 6 10 C3.47650757 6.87567603 1.72743854 3.61939504 0 0 Z " fill="#6C69A1" transform="translate(153,301)"/>
<path d="M0 0 C1.4540625 0.0309375 1.4540625 0.0309375 2.9375 0.0625 C1.9475 0.3925 0.9575 0.7225 -0.0625 1.0625 C-0.3925 2.0525 -0.7225 3.0425 -1.0625 4.0625 C-2.0525 4.3925 -3.0425 4.7225 -4.0625 5.0625 C-4.0625 0.08290816 -4.0625 0.08290816 0 0 Z " fill="#64C4C8" transform="translate(216.0625,132.9375)"/>
<path d="M0 0 C0 0.33 0 0.66 0 1 C-5.94 1.495 -5.94 1.495 -12 2 C-7.30614786 -1.12923476 -5.57971023 -0.92995171 0 0 Z " fill="#615F88" transform="translate(290,369)"/>
<path d="M0 0 C0.66 0 1.32 0 2 0 C2.33 0.99 2.66 1.98 3 3 C2.67 3.66 2.34 4.32 2 5 C2.66 5 3.32 5 4 5 C3.67 5.99 3.34 6.98 3 8 C2.01 8 1.02 8 0 8 C0 5.36 0 2.72 0 0 Z " fill="#404A97" transform="translate(352,263)"/>
<path d="M0 0 C1.32 0.99 2.64 1.98 4 3 C3.01 3.495 3.01 3.495 2 4 C2 4.66 2 5.32 2 6 C1.01 6 0.02 6 -1 6 C-1.625 4.125 -1.625 4.125 -2 2 C-1.34 1.34 -0.68 0.68 0 0 Z " fill="#5D81B4" transform="translate(247,232)"/>
<path d="M0 0 C2.97 0 5.94 0 9 0 C8.01 0.33 7.02 0.66 6 1 C6 1.66 6 2.32 6 3 C4.35 3 2.7 3 1 3 C0.67 2.01 0.34 1.02 0 0 Z " fill="#3B8DC0" transform="translate(259,201)"/>
<path d="M0 0 C0.66 0.33 1.32 0.66 2 1 C-2.625 5.875 -2.625 5.875 -6 7 C-4.60667426 3.63279613 -3.0210714 2.0140476 0 0 Z " fill="#55BCC8" transform="translate(189,148)"/>
<path d="M0 0 C1.31471568 0.28151087 2.62675767 0.57553339 3.9375 0.875 C4.66839844 1.03742188 5.39929688 1.19984375 6.15234375 1.3671875 C8 2 8 2 9 4 C5.625 3.6875 5.625 3.6875 2 3 C1.34 2.01 0.68 1.02 0 0 Z " fill="#383869" transform="translate(212,358)"/>
<path d="M0 0 C0 0.66 0 1.32 0 2 C-2.90600261 3.25664978 -4.79604584 4 -8 4 C-8 3.34 -8 2.68 -8 2 C-2.25 0 -2.25 0 0 0 Z " fill="#2B347A" transform="translate(289,346)"/>
<path d="M0 0 C0.99 0.33 1.98 0.66 3 1 C2.40072174 4.35595828 1.15377564 6.37801226 -1 9 C-0.67 6.03 -0.34 3.06 0 0 Z " fill="#887BD6" transform="translate(325,312)"/>
<path d="M0 0 C0.33 0 0.66 0 1 0 C1.125 5.75 1.125 5.75 0 8 C-0.66 8 -1.32 8 -2 8 C-1.125 1.125 -1.125 1.125 0 0 Z " fill="#433897" transform="translate(279,282)"/>
<path d="M0 0 C1.134375 0.020625 2.26875 0.04125 3.4375 0.0625 C3.4375 0.3925 3.4375 0.7225 3.4375 1.0625 C1.7875 1.0625 0.1375 1.0625 -1.5625 1.0625 C-1.8925 3.7025 -2.2225 6.3425 -2.5625 9.0625 C-2.8925 9.0625 -3.2225 9.0625 -3.5625 9.0625 C-4.44140625 2.91015625 -4.44140625 2.91015625 -4.5625 1.0625 C-3.5625 0.0625 -3.5625 0.0625 0 0 Z " fill="#869ABE" transform="translate(249.5625,222.9375)"/>
<path d="M0 0 C0.66 1.32 1.32 2.64 2 4 C-2.75 8 -2.75 8 -5 8 C-5 7.34 -5 6.68 -5 6 C-4.01 6 -3.02 6 -2 6 C-1.34 4.02 -0.68 2.04 0 0 Z " fill="#5E7E9E" transform="translate(276,214)"/>
<path d="M0 0 C-0.99 0 -1.98 0 -3 0 C-3 0.66 -3 1.32 -3 2 C-2.01 2.33 -1.02 2.66 0 3 C-2.875 3.125 -2.875 3.125 -6 3 C-6.66 2.34 -7.32 1.68 -8 1 C-4.93251126 -0.86240388 -3.40254489 -1.2151946 0 0 Z " fill="#7EB1CE" transform="translate(239,202)"/>
<path d="M0 0 C2.4375 0.625 2.4375 0.625 5 2 C5.8125 5.125 5.8125 5.125 6 8 C5.34 6.68 4.68 5.36 4 4 C3.01 4 2.02 4 1 4 C0.67 2.68 0.34 1.36 0 0 Z " fill="#4FA1BF" transform="translate(264,134)"/>
<path d="M0 0 C3.71888239 0.50712033 6.73454239 1.11608215 10 3 C7.25 3.75 7.25 3.75 4 4 C1.625 2.0625 1.625 2.0625 0 0 Z " fill="#383783" transform="translate(232,343)"/>
<path d="M0 0 C0.33 2.31 0.66 4.62 1 7 C-0.32 6.67 -1.64 6.34 -3 6 C-3.33 4.35 -3.66 2.7 -4 1 C-2 0 -2 0 0 0 Z " fill="#3E3E80" transform="translate(167,313)"/>
<path d="M0 0 C-0.3125 1.875 -0.3125 1.875 -1 4 C-1.99 4.66 -2.98 5.32 -4 6 C-4 5.34 -4 4.68 -4 4 C-4.66 3.67 -5.32 3.34 -6 3 C-2.25 0 -2.25 0 0 0 Z " fill="#435E99" transform="translate(216,182)"/>
<path d="M0 0 C1.65 0.33 3.3 0.66 5 1 C4.67 1.99 4.34 2.98 4 4 C2.35 3.67 0.7 3.34 -1 3 C-0.67 2.01 -0.34 1.02 0 0 Z " fill="#3DB7D2" transform="translate(257,132)"/>
</svg>
